# xmcd
#
# Track frame offsets:
#	150
#	16445
#	33467
#	49220
#	65982
#	83010
#	97812
#	111885
#	126129
#	137740
#	153437
#	167809
#	183135
#	195975
#	215362
#
# Disc length: 3053 seconds
#
# Revision: 1
# Processed by: cddbd v1.5.2PL0 Copyright (c) Steve Scherf et al.
# Submitted via: audiograbber 1.80.04
#
DISCID=c80beb0f
DTITLE=Forró da Brucelose and Gilson Neto - O Forró da Vaquejada
DYEAR=1996
DGENRE=Forró
TTITLE0=Solidão
TTITLE1=Amor, Vinho e Paixão
TTITLE2=Nossa Terra, Nosso Chão
TTITLE3=Azoubel
TTITLE4=Alô
TTITLE5=Brucelose No Forró
TTITLE6=Amor Menino
TTITLE7=Poeira Vivida
TTITLE8=Mãe Maria
TTITLE9=Tempestade de Paixão
TTITLE10=Percorrer o Meu Nordeste
TTITLE11=Estouro da Boiada
TTITLE12=Dois Cavalos
TTITLE13=Destino Cruel
TTITLE14=Mar
EXTD=dayvisondj@hotmail.com\nDayvison DJ Is Of Recife - PE - Brazil\n8690-4073
EXTT0=
EXTT1=
EXTT2=
EXTT3=
EXTT4=
EXTT5=
EXTT6=
EXTT7=
EXTT8=
EXTT9=
EXTT10=
EXTT11=
EXTT12=
EXTT13=
EXTT14=
PLAYORDER=
